<svg xmlns="http://www.w3.org/2000/svg" width="600" height="600" viewBox="0 0 600 600" version="1.1">
	<path d="M 294.302 194.501 C 293.123 195.327, 291.862 197.352, 291.500 199.001 C 290.967 201.427, 290.327 202, 288.150 202 C 279.794 202, 255.111 212.154, 241.860 221.042 C 230.693 228.533, 213 244.128, 213 246.479 C 213 247.052, 209.963 249.844, 206.250 252.684 C 194.745 261.485, 193.741 262.745, 196.310 265.145 C 197.376 266.141, 197.069 266.860, 194.659 269.014 C 192.293 271.128, 191.829 272.182, 192.350 274.260 C 192.709 275.690, 193.622 277.480, 194.380 278.237 C 195.548 279.405, 195.548 279.898, 194.378 281.498 C 190.757 286.450, 194.683 292.626, 203.045 295.132 C 205.220 295.783, 207 296.663, 207 297.087 C 207 298.681, 210.229 301, 212.450 301 C 214.077 301, 215.128 301.895, 216.014 304.034 C 216.705 305.703, 218.300 307.878, 219.559 308.868 C 220.817 309.857, 223.221 314.230, 224.900 318.584 C 231.072 334.589, 243.477 355.945, 254.320 369.236 C 256.894 372.391, 259 375.593, 259 376.352 C 259 379.641, 266.321 392.041, 270.581 395.967 C 279.491 404.181, 294.386 408.814, 307.362 407.409 C 327.494 405.229, 347.030 392.858, 354.523 377.544 C 356.841 372.805, 359.364 362.091, 358.399 361.083 C 357.912 360.575, 358.208 360.078, 354.138 368.256 C 347.997 380.595, 332.076 393.002, 316.500 397.586 C 307.745 400.163, 295.048 399.969, 287.853 397.147 C 278.123 393.333, 269.306 383.819, 267.506 375.195 C 267.092 373.208, 264.426 369.217, 260.827 365.195 C 251.416 354.676, 240.259 337.140, 230.833 318.051 L 222.167 300.500 227.890 295.343 C 231.037 292.506, 234.443 288.344, 235.458 286.093 C 236.473 283.842, 237.613 282, 237.991 282 C 238.369 282, 240.123 283.588, 241.889 285.528 C 243.655 287.469, 245.585 288.756, 246.179 288.389 C 247.395 287.638, 256 269.891, 256 268.134 C 256 266.253, 257.068 266.808, 261.739 271.113 C 267.231 276.176, 268.184 275.568, 270.780 265.348 L 272.584 258.243 276.362 260.181 C 278.440 261.247, 281.346 261.980, 282.820 261.810 C 285.024 261.555, 285.555 260.932, 285.810 258.302 L 286.119 255.103 292.310 258.468 C 299.550 262.403, 315.043 268, 318.696 268 C 320.839 268, 321.161 267.625, 320.771 265.585 C 320.311 263.176, 320.328 263.179, 327.625 266.789 L 334.940 270.409 338.065 278.161 C 342.094 288.156, 343.092 289.002, 347.849 286.455 C 351.349 284.581, 351.521 284.238, 352.004 278.167 C 352.598 270.700, 354.202 269, 360.656 269 C 363.977 269, 365.691 269.668, 368.339 271.993 C 372.709 275.830, 376.221 283.990, 376.378 290.673 C 376.486 295.276, 376.122 296.272, 373.250 299.238 C 369.951 302.646, 369.255 304.835, 370.925 306.550 C 372.028 307.683, 369.620 328.718, 367.400 337.346 C 366.045 342.612, 366.052 343.430, 367.471 345.596 C 369.371 348.496, 370.407 348.593, 372.895 346.105 C 375.164 343.836, 377 335.948, 377 328.464 C 377 323.220, 377.121 322.976, 380.420 321.598 C 384.196 320.020, 386 317.441, 386 313.620 C 386 311.866, 386.829 310.713, 388.750 309.795 C 392.984 307.772, 392.787 304.727, 388.182 301.026 C 384.326 297.928, 384.240 297.715, 383.793 290.183 C 383.041 277.533, 375.374 265.450, 366.668 263.194 C 364.294 262.579, 363.363 261.409, 361.628 256.861 C 354.611 238.470, 339.064 220.939, 321.813 211.964 C 315.484 208.671, 314 207.459, 314 205.584 C 314 202.009, 310.322 198, 307.042 198 C 305.146 198, 303.697 197.186, 302.592 195.500 C 300.727 192.653, 297.496 192.264, 294.302 194.501 M 297.722 276.493 C 291.507 278.202, 289.072 279.869, 283.994 285.892 C 281.638 288.686, 277.445 292.088, 274.398 293.677 C 271.421 295.230, 268.727 297.310, 268.410 298.299 C 267.669 300.614, 270.531 305.003, 272.773 304.991 C 275.841 304.974, 284.823 299.122, 287.701 295.265 C 293.380 287.656, 299.552 282.413, 306.287 279.479 C 309.979 277.871, 313 276.205, 313 275.777 C 313 274.566, 303.029 275.033, 297.722 276.493 M 359.583 276.315 C 357.266 278.010, 354.916 286.877, 356.156 289.250 C 356.659 290.212, 357.966 291, 359.060 291 C 361.527 291, 363 287.424, 363 281.435 C 363 278.085, 363.381 277, 364.559 277 C 365.416 277, 365.840 276.550, 365.500 276 C 364.634 274.599, 361.717 274.755, 359.583 276.315 M 292.602 292.595 C 291.830 294.608, 295.048 301.913, 297.772 304.330 C 298.907 305.337, 300.885 306.012, 302.168 305.830 C 304.073 305.560, 304.557 304.807, 304.813 301.713 C 305.077 298.512, 304.588 297.388, 301.663 294.463 C 297.950 290.750, 293.650 289.863, 292.602 292.595 M 313.250 300.662 C 311.081 301.537, 311.894 303, 314.550 303 C 318.153 303, 322.336 305.391, 323.925 308.359 C 325.908 312.065, 324.717 318.546, 321.271 322.803 C 316.221 329.043, 313.896 330.198, 304.697 331.037 C 300.038 331.461, 295.305 332.302, 294.179 332.904 C 290.957 334.629, 290.822 334.270, 293.049 329.903 C 295.381 325.332, 295.053 323, 292.078 323 C 290.706 323, 289.513 324.311, 288.209 327.250 C 285.790 332.708, 283.725 334.399, 280.478 333.584 C 277.176 332.755, 275.665 328.875, 276.900 324.399 C 278.093 320.079, 276.421 318.808, 273.885 322.106 C 271.596 325.084, 271.472 330.801, 273.631 333.883 C 275.626 336.732, 281.241 339.213, 283.694 338.330 C 285.211 337.784, 285.145 338.070, 283.288 340.114 C 282.072 341.453, 279.816 345.681, 278.276 349.511 C 276.222 354.618, 274.623 357.011, 272.276 358.487 C 268.755 360.703, 268.648 360.897, 269.883 362.844 C 271.265 365.025, 276.629 361.609, 280.311 356.203 C 285.462 348.640, 292.089 342.485, 298.283 339.510 C 301.464 337.983, 304.305 336.972, 304.598 337.264 C 305.783 338.449, 303.629 345.099, 301.307 347.420 C 299.428 349.300, 297.574 349.974, 293.663 350.201 C 288.934 350.475, 288.475 350.719, 288.197 353.107 C 287.756 356.912, 292.480 358.772, 298.219 357.053 C 306.553 354.556, 310.922 346.560, 307.597 339.893 C 306.714 338.123, 306.106 336.584, 306.246 336.472 C 306.386 336.361, 308.799 335.519, 311.609 334.601 C 328.742 329.006, 335.198 308.079, 321.684 301.943 C 317.467 300.029, 315.544 299.737, 313.250 300.662 M 257.155 303.020 C 255.866 304.095, 252.941 305.470, 250.655 306.077 C 240.776 308.699, 237 312.297, 237 319.085 L 237 322.270 239.002 319.725 C 240.592 317.703, 242.494 316.935, 248.252 315.989 C 257.360 314.493, 263.343 311.932, 265.531 308.594 C 267.109 306.184, 267.114 305.822, 265.592 303.500 C 263.624 300.497, 260.403 300.314, 257.155 303.020 M 254.200 319.200 C 251.291 322.109, 254.953 330.239, 260.339 332.829 C 267.685 336.362, 267.723 325.861, 260.385 320.088 C 257.352 317.702, 255.906 317.494, 254.200 319.200 M 287.500 337 C 287.160 337.550, 287.359 338, 287.941 338 C 288.523 338, 289 337.550, 289 337 C 289 336.450, 288.802 336, 288.559 336 C 288.316 336, 287.840 336.450, 287.500 337" stroke="none" fill="black" fill-rule="evenodd"/>
</svg>