<svg xmlns="http://www.w3.org/2000/svg" width="1000" height="1000" viewBox="0 0 1000 1000" version="1.1">
	<path d="M 571.500 243.619 C 559.462 247.866, 541.523 252.661, 512.073 259.502 C 496.438 263.134, 478.888 267.401, 473.073 268.984 C 441.091 277.691, 416.319 288.797, 396.753 303.199 C 372.339 321.168, 351.305 352.666, 356.058 364.139 C 357.303 367.146, 360.742 368.697, 363.670 367.573 C 365.150 367.005, 365.092 366.753, 363.173 365.408 C 360.569 363.585, 360.380 360.107, 362.645 355.700 C 371.574 338.323, 392.876 318.089, 415.915 305.102 C 438.927 292.129, 459.836 285.189, 509.660 273.984 C 524.422 270.664, 542.575 266.339, 550 264.372 C 557.425 262.405, 564.513 260.564, 565.750 260.281 C 567.938 259.781, 568 259.987, 568 267.709 C 568 274.718, 568.272 275.907, 570.314 277.826 C 573.209 280.545, 573.544 280.538, 586.403 277.500 C 592.222 276.125, 597.401 275, 597.912 275 C 598.422 275, 597.696 279.315, 596.299 284.588 C 593.479 295.235, 593.874 298.074, 598.466 300.166 C 600.637 301.155, 602.021 300.760, 609.117 297.122 C 613.603 294.822, 617.482 293.149, 617.738 293.405 C 618.401 294.067, 615.388 302.983, 610.907 313.624 C 606.091 325.058, 605.177 330.034, 607.471 332.328 C 610.112 334.969, 612.697 334.314, 616.953 329.929 C 621.642 325.097, 627.868 310.143, 631.815 294.231 L 634.362 283.962 632.332 281.231 C 629.837 277.874, 626.389 277.408, 618.142 279.313 C 614.764 280.094, 612.008 280.455, 612.017 280.116 C 612.027 279.777, 612.895 276.185, 613.948 272.132 C 616.104 263.831, 615.547 260.662, 611.620 258.873 C 609.680 257.989, 606.570 258.391, 595.948 260.900 C 588.660 262.621, 582.473 263.806, 582.200 263.533 C 581.927 263.260, 582.720 260.441, 583.962 257.269 C 587.341 248.641, 587.586 245.586, 585.098 243.098 C 582.455 240.455, 580.225 240.540, 571.500 243.619 M 602 334.848 C 602 335.314, 605.642 339.926, 610.094 345.098 C 626.472 364.121, 633.682 376.539, 640.865 398.095 C 645.797 412.895, 648.983 417.463, 655.520 419.109 C 659.648 420.149, 659.995 420.518, 661.862 425.854 C 681.632 482.374, 690.562 510.678, 698.978 543.500 C 704.591 565.390, 709.463 588.760, 710.961 600.974 C 713.232 619.492, 711.830 645.281, 707.876 657.750 C 706.681 661.517, 705.327 661.735, 697 659.500 C 685.740 656.478, 676.671 658.440, 672.077 664.892 C 670.926 666.508, 668.670 671.062, 667.062 675.012 C 665.455 678.962, 663.883 682.450, 663.570 682.764 C 663.256 683.077, 661.627 683.333, 659.950 683.333 C 657.653 683.333, 656.152 682.427, 653.877 679.667 C 651.394 676.655, 650.198 676.001, 647.177 676.004 C 639.806 676.011, 634.648 681.568, 631.907 692.455 C 630.801 696.849, 630.535 697.136, 628.109 696.557 C 626.674 696.216, 622.575 695.677, 619 695.361 C 613.231 694.851, 612.173 695.046, 609.588 697.094 C 606.423 699.600, 586.317 706.821, 573.500 710.054 C 563.446 712.590, 543.277 713.610, 532.500 712.128 C 528.100 711.523, 519.216 709.368, 512.757 707.340 C 506.298 705.312, 500.673 704, 500.257 704.424 C 499.214 705.487, 505.106 710.252, 511.875 713.820 C 523.611 720.006, 538.301 724.177, 553 725.498 C 567.496 726.800, 592.261 722.352, 602.610 716.587 C 606.292 714.536, 606.993 714.440, 609.343 715.672 C 612.647 717.403, 616.649 716.466, 618.588 713.506 C 619.971 711.395, 620.291 711.339, 623.781 712.585 C 634.472 716.401, 644.196 710.829, 647.254 699.136 C 647.788 697.096, 647.959 697.074, 652.029 698.510 C 665.074 703.113, 675.892 697.471, 681.518 683.133 C 685.253 673.611, 685.632 673.358, 693.274 675.290 C 702.982 677.746, 705.481 677.982, 709.633 676.838 C 717.954 674.546, 721.322 669.879, 724.981 655.574 C 732.732 625.270, 727.504 585.946, 707.822 526.500 C 695.702 489.891, 677.404 446.882, 664.802 425.380 C 661.690 420.070, 661.432 419.130, 662.635 417.485 C 664.803 414.519, 664.249 411.360, 660.665 406.252 C 657.617 401.908, 650.344 385.296, 651.155 384.530 C 652.616 383.151, 663.629 381, 669.227 381 C 675.181 381, 676.416 380.675, 678.545 378.545 C 681.546 375.545, 681.568 374.992, 678.830 371.511 C 676.813 368.947, 676.269 368.789, 671.080 369.268 C 664.964 369.832, 656.156 373.441, 651.564 377.264 L 648.628 379.708 643.064 370.897 C 632.526 354.208, 621.019 342.535, 609.283 336.626 C 603.821 333.876, 602 333.432, 602 334.848 M 658.461 342.389 C 647.697 344.516, 638.995 349.176, 636.394 354.206 C 634.380 358.100, 635.507 359.477, 638.820 357.171 C 643.395 353.987, 648.115 352.847, 659.080 352.280 C 671.544 351.635, 675.466 352.623, 681.287 357.871 C 686.864 362.898, 688.951 367.956, 688.977 376.500 C 689.008 386.704, 685.552 393.481, 675.680 402.578 C 666.672 410.879, 663.997 415.820, 666.470 419.595 C 667.771 421.580, 668.881 422, 672.827 422 C 683.773 422, 696.764 408.102, 702.151 390.628 C 707.621 372.881, 699.853 352.432, 684.888 345.188 C 680.212 342.924, 671.552 340.932, 667.114 341.098 C 665.676 341.152, 661.782 341.733, 658.461 342.389 M 315.601 362.594 C 289.143 368.996, 270.701 394.465, 272.250 422.463 C 273.087 437.588, 278.112 449.002, 288.396 459.138 C 299.895 470.471, 318.580 475.690, 332.672 471.505 C 338.841 469.673, 347 462.858, 347 459.537 C 347 455.132, 344.957 454.643, 334.453 456.534 C 316.430 459.779, 304.115 456.190, 295.432 445.160 C 275.725 420.128, 289.365 382.912, 321.368 374.390 C 334.943 370.776, 352.106 374.098, 365.896 383.011 C 369.253 385.181, 372 386.584, 372 386.128 C 372 384.516, 366.244 377.385, 361.751 373.430 C 349.919 363.015, 331.619 358.718, 315.601 362.594 M 333 400.691 C 323.770 402.236, 314.212 406.920, 307.313 413.279 C 301.991 418.184, 301.772 420, 306.500 420 C 308.425 420, 310 419.605, 310 419.122 C 310 417.725, 322.631 414.929, 331.891 414.275 L 340.366 413.677 338.008 416.988 C 336.508 419.096, 335.623 421.790, 335.575 424.400 C 335.507 428.127, 335.728 428.500, 338 428.500 C 340.276 428.500, 340.614 427.923, 341.774 422.059 C 342.475 418.517, 343.180 415.487, 343.340 415.326 C 343.501 415.166, 345.175 415.477, 347.060 416.017 C 352.169 417.482, 359.261 417.206, 361.777 415.443 C 363.237 414.421, 364 412.853, 364 410.878 C 364 403.271, 358.024 399.987, 344.500 400.158 C 339.550 400.221, 334.375 400.461, 333 400.691 M 499.879 432.906 C 489.880 436.104, 477.670 442.704, 470.422 448.827 C 461.398 456.451, 453.970 467.089, 453.258 473.406 C 452.799 477.479, 452.962 478, 454.701 478 C 455.780 478, 462.396 474.195, 469.403 469.545 C 483.678 460.072, 493.627 455.773, 506.451 453.536 C 516.634 451.761, 518.482 450.903, 520.490 447.020 C 523.013 442.141, 522.427 438.227, 518.600 434.400 C 515.643 431.443, 514.568 431.007, 510.350 431.054 C 507.683 431.083, 502.971 431.917, 499.879 432.906 M 612.500 459.064 C 606.504 460.352, 596.737 461.263, 583.238 461.796 C 566.867 462.441, 562.673 462.898, 561.398 464.174 C 559.959 465.613, 560.023 465.944, 562.124 467.901 C 569.521 474.793, 609.463 480.428, 626.971 477.050 C 632.756 475.934, 636 472.324, 636 467 C 636 457.870, 629.026 455.515, 612.500 459.064 M 335.858 484.658 C 317.694 507.820, 299.299 554.502, 291.590 597 C 285.526 630.431, 285.520 646.509, 291.563 663.562 C 297.547 680.447, 307.714 684.929, 318.700 675.525 C 323.186 671.685, 323.979 672.103, 324.022 678.332 C 324.046 681.844, 327.181 689.438, 329.803 692.334 C 336.290 699.503, 348.953 700.087, 357.445 693.610 C 359.400 692.118, 361 691.308, 361 691.808 C 361 693.719, 369.427 702.179, 373.372 704.229 C 377.698 706.478, 386.036 707.172, 391.275 705.719 C 392.802 705.296, 395.809 703.360, 397.959 701.418 L 401.868 697.886 405.686 701.335 C 407.786 703.232, 411.036 707.507, 412.907 710.835 C 417.159 718.394, 420.731 720.333, 424.814 717.299 C 429.883 713.531, 428.650 706.627, 421.803 700.441 C 416.892 696.004, 410.075 693, 404.917 693 C 402.129 693, 401 692.574, 401 691.523 C 401 690.711, 399.967 689.369, 398.704 688.542 C 396.625 687.180, 395.895 687.232, 391.001 689.092 C 381.247 692.798, 376.084 689.757, 371.121 677.384 C 368.939 671.944, 367.674 670.150, 365.091 668.833 C 360.067 666.270, 356.797 667.896, 353.376 674.658 C 350.348 680.643, 347.797 683, 344.349 683 C 340.820 683, 339.427 680.710, 337.691 672.055 C 335.709 662.173, 333.637 657.590, 329.972 654.980 C 326.665 652.625, 320.757 652.384, 318.974 654.531 C 318.276 655.373, 315.542 657.872, 312.900 660.084 L 308.095 664.107 306.166 660.303 C 302.533 653.142, 301.710 646.318, 302.256 627.883 C 303.326 591.721, 313.421 550.455, 333.608 499.730 C 337.739 489.349, 340.966 480.397, 340.779 479.836 C 340.592 479.276, 338.377 481.446, 335.858 484.658 M 494.763 484.516 C 490.141 487.107, 488.807 491.051, 489.170 501.051 C 489.369 506.552, 489.077 510.323, 488.398 511.002 C 486.288 513.112, 482.139 509.828, 476.970 501.954 C 471.795 494.072, 468.414 490.253, 467.457 491.209 C 467.166 491.501, 466.418 494.479, 465.795 497.827 C 462.742 514.242, 473.364 528.487, 488.664 528.496 C 493.905 528.499, 495.469 528.049, 499.109 525.491 C 505.998 520.649, 508.077 515.421, 508.727 501.302 C 509.256 489.839, 509.192 489.336, 506.887 486.682 C 503.947 483.296, 498.632 482.347, 494.763 484.516 M 610.967 486.879 C 607.384 490.462, 607.474 492.527, 611.600 501.387 C 614.353 507.299, 614.607 510.252, 612.513 511.989 C 608.520 515.303, 601.565 509.558, 598.115 500.095 C 596.906 496.779, 595.435 493.769, 594.847 493.405 C 591.082 491.079, 591.262 505.149, 595.093 512.591 C 601.591 525.219, 618.297 527.103, 625.747 516.048 C 627.492 513.457, 628 511.285, 628 506.401 C 628 492.649, 624.664 485.436, 617.796 484.343 C 614.582 483.831, 613.680 484.166, 610.967 486.879 M 570.508 515.974 C 569.929 517.798, 570.788 519.058, 575.433 523.198 C 581.886 528.950, 584 532.450, 584 537.385 C 584 542.579, 582.430 545.768, 578.775 547.996 C 573.065 551.477, 567.336 550.168, 556.764 542.964 C 552.769 540.241, 548.917 538.011, 548.205 538.007 C 545.808 537.994, 542 542.799, 542 545.836 C 542 549.392, 545.881 552.627, 555.756 557.305 C 561.709 560.125, 563.505 560.500, 571.073 560.500 C 578.758 560.500, 580.078 560.214, 583.814 557.741 C 592.167 552.214, 596.667 540.683, 594.149 531.266 C 591.781 522.415, 583.917 515.196, 575.623 514.261 C 571.727 513.822, 571.128 514.023, 570.508 515.974 M 571.133 592.586 C 566.661 594.467, 564.841 599.187, 565.641 606.836 C 566.230 612.478, 566.127 612.871, 563.611 614.519 C 561.680 615.784, 559.719 616.116, 556.388 615.740 C 550.371 615.062, 544.987 609.938, 542.097 602.138 C 538.921 593.567, 538.475 593.091, 535.960 595.600 C 532.961 598.593, 531.730 605.088, 532.931 611.587 C 534.180 618.338, 536.068 622.002, 540.678 626.611 C 554.019 639.953, 576.962 636.156, 585.044 619.270 C 588.264 612.542, 588.348 602.864, 585.230 597.849 C 583.981 595.841, 582.181 593.882, 581.230 593.495 C 576.343 591.508, 574.164 591.312, 571.133 592.586" stroke="none" fill="black" fill-rule="evenodd"/>
</svg>