<svg xmlns="http://www.w3.org/2000/svg" width="1000" height="1000" viewBox="0 0 1000 1000" version="1.1">
	<path d="M 478.042 283.089 C 449.900 286.729, 421.798 296.939, 400.024 311.435 C 365.958 334.114, 341.111 368.438, 329.709 408.570 C 324.102 428.306, 323.496 433.032, 323.562 456.500 C 323.616 475.972, 323.877 479.419, 325.827 486.500 C 327.039 490.900, 329.344 496.619, 330.949 499.210 L 333.867 503.919 330.493 506.004 C 325.833 508.884, 318.044 517.628, 314.783 523.640 C 301.408 548.299, 312.222 579.338, 338.645 592.127 C 348.429 596.863, 356.012 598.079, 360.685 595.663 L 363.738 594.084 367.423 602.790 C 380.446 633.553, 409.867 673.976, 419.250 673.996 C 421.891 674.002, 425 670.351, 424.996 667.250 C 424.991 663.113, 422.308 659.398, 406.167 641.178 C 398.040 632.005, 385.528 617.525, 378.361 609 C 365.894 594.171, 365.349 593.336, 365.779 589.705 C 366.395 584.510, 364.242 582.427, 355.572 579.834 C 346.032 576.980, 343.499 575.585, 337.432 569.847 C 334.109 566.704, 331.263 562.750, 329.504 558.829 C 327.083 553.435, 326.813 551.817, 327.214 545.107 C 327.751 536.121, 330.042 531.008, 336.739 523.847 C 345.294 514.702, 358.756 509.247, 370.209 510.285 L 375.951 510.806 374.578 508.151 C 370.665 500.583, 358.162 496.279, 347.356 498.781 L 343.213 499.740 342.464 478.120 C 341.105 438.866, 345.722 414.112, 359.552 386.500 C 385.707 334.282, 439.513 301.872, 499.784 302.031 C 520.149 302.085, 538.686 305.674, 556.790 313.068 C 599.204 330.392, 631.018 364.869, 654.541 419 C 656.334 423.125, 658.836 428.750, 660.102 431.500 L 662.404 436.500 663.016 433.500 C 663.353 431.850, 663.951 438.150, 664.344 447.500 C 665.697 479.649, 667.124 498.592, 671.160 538 C 677.301 597.947, 676.883 615.330, 668.835 634.720 C 656.896 663.485, 630.526 682.514, 586.582 694.074 C 556.660 701.945, 534.860 701.434, 520.500 692.524 C 512.184 687.364, 510.357 686.824, 506.566 688.408 C 501.208 690.647, 498.365 698.077, 500.991 702.983 C 502.685 706.148, 515.198 713.739, 523.538 716.661 C 531.031 719.286, 532.501 719.451, 548.500 719.475 C 568.271 719.504, 578.685 717.706, 600.796 710.447 C 649.628 694.414, 682.289 663.022, 689.630 625.066 C 691.837 613.657, 692.414 596.078, 691.078 581.003 C 689.678 565.206, 681.084 502.160, 677.377 480.500 C 673.989 460.699, 666.014 422.645, 665.119 422.005 C 664.729 421.727, 663.857 417.574, 663.181 412.776 C 659.254 384.932, 644.492 357.032, 621.113 333.268 C 592.959 304.650, 559.308 287.934, 520.026 283.053 C 510.288 281.843, 487.524 281.862, 478.042 283.089 M 596.789 428.298 C 593.919 430.588, 593.051 434.215, 594.531 437.735 C 595.972 441.164, 595.489 440.982, 613.353 444.827 C 619.218 446.089, 627.831 448.999, 634.631 452.016 C 640.914 454.803, 646.493 456.813, 647.028 456.483 C 650.818 454.140, 642.754 443.219, 632.857 437.292 C 621.878 430.718, 600.454 425.375, 596.789 428.298 M 499 432.571 C 489.810 434.976, 477.532 441.614, 470.844 447.793 C 461.845 456.108, 456.555 464, 459.981 464 C 460.520 464, 463.332 462.486, 466.231 460.635 C 480.518 451.512, 493.656 447.004, 505.980 446.994 C 510.116 446.991, 515.192 446.519, 517.259 445.945 C 524.217 444.013, 525.763 437.318, 520.253 432.984 C 517.166 430.556, 507.422 430.367, 499 432.571 M 492.324 477.439 C 486.383 479.297, 481.974 482.252, 476.652 487.941 C 471.747 493.185, 468.153 499.486, 469.371 500.705 C 469.773 501.106, 474.241 499.319, 479.300 496.734 C 496.335 488.031, 501.950 488.250, 510.974 497.972 C 517.536 505.042, 521.313 505.960, 524.927 501.365 C 527.732 497.800, 527.538 495.240, 524.048 489.737 C 520.433 484.036, 514.320 479.470, 507.655 477.490 C 501.646 475.706, 497.909 475.693, 492.324 477.439 M 609.572 478.018 C 600.694 481.484, 593.618 490.944, 595.639 496.643 C 597.942 503.134, 605.159 505.156, 608.927 500.365 C 610.067 498.916, 611 496.961, 611 496.020 C 611 489.914, 627.086 485.848, 638.140 489.160 C 642.840 490.568, 643.796 489.864, 641.644 486.580 C 635.391 477.036, 621.550 473.341, 609.572 478.018 M 631.575 506.878 C 631.277 507.361, 631.096 509.724, 631.174 512.128 C 631.252 514.533, 630.514 520.550, 629.534 525.500 C 626.259 542.048, 627.279 552.092, 633.099 560.615 C 640.242 571.072, 656.047 570.520, 661.385 559.627 C 664.485 553.299, 662.628 547.973, 649.973 526.909 C 643.982 516.938, 638.274 508.168, 637.290 507.421 C 635.236 505.864, 632.371 505.591, 631.575 506.878 M 571.250 515.118 C 569.212 517.208, 569.741 518.276, 575.102 522.893 C 581.456 528.365, 583.991 532.439, 583.996 537.185 C 584.002 542.573, 582.471 545.742, 578.775 547.996 C 573.065 551.477, 567.336 550.168, 556.764 542.964 C 552.769 540.241, 548.917 538.011, 548.205 538.007 C 545.776 537.994, 542 542.800, 542 545.904 C 542 549.549, 545.440 552.422, 555.526 557.198 C 561.729 560.135, 563.448 560.500, 571.073 560.500 C 578.758 560.500, 580.078 560.214, 583.814 557.741 C 598.347 548.124, 598.440 526.937, 583.991 517.375 C 579.456 514.374, 573.077 513.244, 571.250 515.118 M 477 519.986 C 476.175 520.478, 474.300 521.132, 472.833 521.439 C 469.359 522.165, 458.459 533.274, 454.011 540.621 C 442.387 559.826, 443.967 578, 457.262 578 C 464.420 578, 472.612 571.907, 476.756 563.500 C 479.865 557.196, 480.872 550.620, 481.197 534.521 C 481.454 521.816, 481.272 519.507, 480 519.316 C 479.175 519.192, 477.825 519.494, 477 519.986 M 636.744 524.663 C 635.695 526.486, 634.912 533.374, 634.895 540.912 C 634.875 549.866, 637.091 555.703, 641.643 558.685 C 644.758 560.726, 650.182 560.924, 652.407 559.078 C 655.622 556.409, 654.287 551.838, 646.372 538.426 C 637.988 524.218, 637.446 523.443, 636.744 524.663 M 468.140 530.538 C 460.817 538.550, 453.708 553.219, 453.188 561.393 C 452.704 568.993, 454.433 571.563, 459.366 570.577 C 463.353 569.779, 466.602 566.643, 469.804 560.500 C 472.170 555.963, 472.463 554.112, 472.976 540.500 C 473.287 532.250, 473.479 525.372, 473.403 525.215 C 473.326 525.059, 470.958 527.454, 468.140 530.538 M 345.750 537.719 C 343.688 537.940, 342 538.472, 342 538.902 C 342 539.332, 343.688 540.198, 345.750 540.828 C 347.813 541.457, 351.300 543.071, 353.500 544.414 C 357.043 546.577, 357.500 547.292, 357.500 550.678 C 357.500 554.577, 358.443 555.138, 362.910 553.893 C 363.782 553.650, 365.511 555.600, 367.439 559 C 370.111 563.713, 371.029 564.546, 373.850 564.819 C 378.419 565.261, 382 562.719, 382 559.034 C 382 556.876, 380.542 554.539, 376.409 550.075 C 367.794 540.769, 357.182 536.493, 345.750 537.719 M 525.167 570.907 C 501.958 571.584, 502 571.567, 502 580.142 C 502 598.134, 514.393 618.713, 529.353 625.561 C 552.446 636.134, 585.979 630.090, 603.953 612.116 C 614.129 601.940, 619.408 588.224, 617.102 577.957 C 615.353 570.176, 617.035 570.511, 579.215 570.407 C 560.672 570.355, 536.350 570.580, 525.167 570.907 M 558.750 577.750 L 522 578.025 522 580.562 C 522 584.550, 524.746 588.895, 527.768 589.689 C 529.271 590.084, 540.625 590.428, 553 590.453 C 575.909 590.501, 582.257 589.786, 596.519 585.550 C 603.757 583.401, 605.548 581.892, 604.091 579.171 C 603.175 577.458, 602.146 577.050, 599.215 577.237 C 597.172 577.368, 578.962 577.598, 558.750 577.750" stroke="none" fill="black" fill-rule="evenodd"/>
</svg>